<svg width="606" height="647" viewBox="0 0 606 647" fill="none" xmlns="http://www.w3.org/2000/svg">
<path d="M0.240234 647C1.84023 554.84 3.44026 462.68 46.3203 399.704C89.3603 336.728 173.52 303.107 232.72 248.835C291.76 194.392 325.68 119.469 383.76 74.584C441.84 29.8693 523.92 15.3626 606 0.855957V647H0.240234Z" fill="#D6D8CA"/>
<path d="M202.16 647C203.28 585.56 204.24 524.12 232.88 482.136C261.52 440.152 317.68 417.795 357.04 381.443C396.56 345.261 419.12 295.256 457.84 265.389C496.56 235.523 551.28 225.965 606 216.237V647H202.16Z" fill="#868F66"/>
<path d="M404.08 647C404.56 616.28 405.2 585.56 419.44 564.568C433.84 543.576 461.84 532.312 481.52 514.221C501.2 496.131 512.56 471.213 531.92 456.195C551.28 441.347 578.64 436.397 606 431.619V647H404.08Z" fill="#606C38"/>
</svg>
