<svg width="606" height="647" viewBox="0 0 606 647" fill="none" xmlns="http://www.w3.org/2000/svg">
<path d="M605.76 0C599.2 84.8213 592.8 169.472 559.68 247.296C526.4 324.949 466.4 395.605 397.12 423.595C327.68 451.584 248.96 436.736 181.28 466.773C113.44 496.64 56.8 571.392 0 646.144V0H605.76Z" fill="#D6D8CA"/>
<path d="M403.84 0C399.52 56.4907 395.2 112.981 373.12 164.864C350.88 216.576 311.04 263.68 264.8 282.453C218.56 301.056 165.92 291.157 120.8 311.125C75.68 331.093 37.76 380.928 0 430.763V0H403.84Z" fill="#868F66"/>
<path d="M201.92 0C199.68 28.3307 197.6 56.4907 186.56 82.432C175.52 108.373 155.52 131.925 132.32 141.141C109.28 150.528 83.04 145.579 60.48 155.648C37.76 165.547 18.88 190.464 0 215.381V0H201.92Z" fill="#606C38"/>
</svg>
