<svg width="200" height="180" viewBox="0 0 200 180" fill="none" xmlns="http://www.w3.org/2000/svg">
<path d="M67.3986 0.174237C19.2482 0.48446 4.86563 0.794682 3.68445 1.57024C-0.206491 3.97446 0.00195212 0.251783 0.00195212 72.6887C0.00195212 133.104 0.140914 139.619 1.11365 141.248C3.61497 145.126 4.2403 145.203 42.5244 145.203H78.2377L75.5974 154.2C73.513 161.18 73.0961 163.429 73.7214 164.282C74.8331 165.755 113.048 165.911 114.854 164.359C116.035 163.506 115.966 162.963 114.298 156.526C113.326 152.804 112.075 148.693 111.519 147.452L110.407 145.203H146.26C175.581 145.203 182.529 144.97 184.474 144.117C189.268 141.868 188.991 146.444 188.991 72.6887C188.991 0.562006 189.199 4.05202 185.378 1.57024C183.154 0.174237 144.175 -0.291096 67.3986 0.174237ZM183.779 3.27646C187.601 4.90513 187.601 4.90512 187.601 60.6676V111.854H94.8436H2.08639L1.94742 60.8227C1.80846 28.5596 2.0169 8.86045 2.43379 7.15423C2.85068 5.60312 3.82341 4.05202 4.86563 3.50913C7.08902 2.26824 180.861 2.03557 183.779 3.27646ZM187.462 124.651C187.601 130.468 187.323 135.974 186.906 137.603C185.447 143.264 192.187 142.954 93.3845 142.721L4.72667 142.489L3.40653 140.627C2.22535 138.999 2.08639 137.448 2.08639 126.512V114.181L94.7047 114.336L187.254 114.569L187.462 124.651ZM109.782 148.616C111.589 153.424 113.881 162.11 113.395 162.576C113.187 162.886 104.64 163.041 94.3573 163.041C79.9052 163.041 75.7363 162.808 75.7363 162.033C75.7363 161.025 78.5851 150.865 79.8357 147.297L80.6 145.203H94.4962H108.462L109.782 148.616Z" fill="white"/>
<path d="M6.39433 57.3325L6.60278 106.813H94.4964H182.39L182.598 57.3325L182.737 7.92963H94.4964H6.25537L6.39433 57.3325ZM180.514 57.3325L180.306 104.486H94.4964H8.68721L8.47877 57.3325L8.3398 10.2563H94.4964H180.653L180.514 57.3325Z" fill="white"/>
<path d="M90.7443 125.194C88.3125 128.994 90.3274 133.57 94.4268 133.725C98.5262 133.88 100.68 129.072 98.2483 125.194C96.7892 122.79 92.2034 122.79 90.7443 125.194Z" fill="white"/>
<path d="M179.263 166.066C172.384 168.548 167.104 175.605 169.536 178.94C170.3 179.948 172.732 180.103 185.099 179.948L199.76 179.716L199.968 177.544C200.316 174.519 197.745 170.331 194.132 168.005C191.839 166.531 189.894 165.988 186.072 165.678C183.293 165.523 180.236 165.678 179.263 166.066ZM190.45 168.625C193.368 169.711 196.008 171.883 197.12 174.132C198.926 177.777 198.857 177.777 184.405 177.777H170.856L171.273 175.993C171.968 173.356 175.233 170.021 178.29 168.858C181.625 167.539 187.323 167.384 190.45 168.625Z" fill="white"/>
<path d="M32.6579 170.564C29.2533 171.96 28.1416 175.761 30.4345 178.01C31.6157 179.173 37.0352 179.328 91.8558 179.328C124.929 179.328 152.513 179.173 153.138 178.863C154.458 178.32 155.223 175.45 154.597 173.279C154.389 172.426 153.208 171.34 152.026 170.875C149.803 170.021 34.7423 169.711 32.6579 170.564ZM152.096 173.667L153.763 174.907L152.165 176.381C150.706 177.699 147.858 177.777 92.7591 177.777C56.7678 177.777 34.1865 177.467 33.0748 177.001C30.9904 176.148 30.7124 174.365 32.5189 173.201C33.2832 172.658 53.7107 172.426 92.0642 172.348C145.426 172.348 150.637 172.426 152.096 173.667Z" fill="white"/>
</svg>
